<svg width="20" height="20" viewBox="0 0 20 20" fill="none" xmlns="http://www.w3.org/2000/svg">
<path d="M2.40599 12.523L5.80799 9.121L8.63599 11.95L11.793 8.793L9.99999 7H15V12L13.207 10.207L8.63599 14.778L5.80799 11.95L3.33299 14.424C4.45641 16.1149 6.18062 17.3154 8.15623 17.7823C10.1318 18.2493 12.2111 17.9477 13.9726 16.9387C15.7341 15.9297 17.0462 14.2888 17.6429 12.3484C18.2396 10.4081 18.0764 8.31341 17.1862 6.48893C16.2961 4.66446 14.7456 3.24663 12.849 2.52274C10.9524 1.79886 8.85158 1.82307 6.97218 2.59047C5.09277 3.35787 3.57539 4.81106 2.72752 6.65556C1.87966 8.50006 1.76471 10.5979 2.40599 12.524V12.523ZM0.867993 14.081L0.857993 14.071L0.861993 14.067C0.291921 12.787 -0.00180296 11.4012 -7.07302e-06 10C-7.07302e-06 4.477 4.47699 0 9.99999 0C15.523 0 20 4.477 20 10C20 15.523 15.523 20 9.99999 20C5.92999 20 2.42999 17.57 0.867993 14.081Z" fill="white"/>
</svg>
